<?xml version="1.0"?>

<!DOCTYPE svg PUBLIC '-//W3C//DTD SVG 1.0//EN' 'http://www.w3.org/TR/2001/REC-SVG-20010904/DTD/svg10.dtd'>
<svg fill-opacity="1" xmlns:xlink="http://www.w3.org/1999/xlink" color-rendering="auto" color-interpolation="auto" stroke="black" text-rendering="auto" stroke-linecap="square" stroke-miterlimit="10" stroke-opacity="1" shape-rendering="auto" fill="black" stroke-dasharray="none" font-weight="normal" stroke-width="1" xmlns="http://www.w3.org/2000/svg" font-family="&apos;Dialog&apos;" font-style="normal" stroke-linejoin="miter" font-size="12" stroke-dashoffset="0" image-rendering="auto">
  <!--Unicode Character 'HEADPHONE' (U+1F3A7)-->
  <defs id="genericDefs" />
  <g>
    <g>
      <path d="M283.3594 236.3906 Q283.3594 237.6562 282.9375 239.9062 Q282.5156 242.5781 282.5156 243.4219 Q280.4062 269.5781 267.8906 282.2344 Q265.5 284.625 257.9062 289.5469 Q249.6094 294.75 247.3594 294.75 L227.6719 294.75 Q226.8281 294.75 225.2812 294.1875 Q223.3125 293.625 222.75 293.4844 Q207.1406 290.8125 196.3125 275.2031 Q194.0625 272.1094 189 258.4688 Q183.375 243.5625 183.375 232.875 Q183.375 211.5 190.9688 197.5781 Q191.5312 196.4531 197.5781 190.125 Q202.9219 184.5 202.7812 183.0938 L200.1094 156.9375 Q199.9688 155.1094 202.9219 152.1562 L217.8281 152.1562 L217.8281 148.0781 L202.9219 148.0781 Q201.2344 146.9531 198.8438 144 Q197.7188 141.4688 197.2969 133.0312 Q197.0156 123.8906 196.0312 120.6562 Q192.9375 109.9688 181.6875 99.5625 Q168.6094 87.4688 151.875 83.25 Q149.0625 82.5469 149.3438 82.5469 Q146.3906 82.5469 133.2422 85.7109 Q120.0938 88.875 117.7031 90.1406 Q101.5312 98.7188 95.4844 117.4219 Q91.2656 130.6406 91.2656 153.8438 Q91.2656 157.3594 91.2656 164.1094 Q91.4062 170.8594 91.4062 173.9531 Q85.7812 178.7344 82.4062 179.1562 Q84.2344 178.875 72 178.875 L72 184.6406 Q73.125 184.6406 75.4453 184.5 Q77.7656 184.3594 79.0312 184.3594 Q85.6406 184.3594 87.75 188.2969 Q88.3125 189.5625 91.4062 200.9531 Q95.0625 216.2812 102.375 239.625 L104.3438 239.2031 L104.625 238.5 Q104.625 238.0781 99 212.4844 Q103.5 214.7344 111.0938 220.5 Q124.1719 234.7031 131.7656 256.3594 Q138.9375 276.8906 138.9375 297.2812 Q138.9375 321.4688 123.8906 331.4531 Q121.9219 332.7188 115.0312 335.3906 Q97.4531 342.1406 82.4062 342.1406 Q75.375 342.1406 56.8125 333.2812 Q43.7344 327.0938 36.8438 321.3281 Q35.8594 320.4844 30.5156 313.0312 Q18.7031 296.4375 15.1875 285.8906 Q11.5312 274.7812 11.5312 254.5312 Q11.5312 246.9375 16.5234 238.7812 Q21.5156 230.625 28.125 227.1094 Q31.7812 225.5625 38.9531 222.1875 Q39.5156 215.2969 39.5156 203.2031 Q39.5156 191.1094 40.1484 189.2109 Q40.7812 187.3125 43.5938 184.6406 L55.8281 184.6406 L55.8281 179.2969 Q53.4375 178.875 46.6875 178.7344 Q42.4688 174.5156 42.4688 172.5469 Q42.4688 159.4688 46.125 136.4062 Q47.5312 127.5469 51.4688 119.25 Q54.1406 113.625 69.4688 98.2969 Q80.1562 87.6094 92.8125 81 Q95.4844 79.5938 107.5078 75.0938 Q119.5312 70.5938 121.2188 70.5938 L152.7188 70.5938 Q153.7031 70.5938 155.6016 71.0156 Q157.5 71.4375 158.4844 71.4375 Q177.6094 71.4375 199.5469 81.4219 Q199.5469 81.4219 205.7344 85.5 Q224.7188 98.0156 235.125 117 Q235.2656 117.2812 239.3438 127.5469 Q244.125 139.6406 244.125 143.7188 Q244.125 144.9844 241.875 148.0781 L229.9219 148.0781 L229.9219 152.1562 L241.7344 152.1562 Q245.9531 155.9531 248.625 165.2344 Q251.5781 175.2188 254.3906 178.5938 Q257.4844 180.4219 262.5469 183.5156 Q268.4531 187.3125 272.1094 192.2344 Q283.3594 207.2812 283.3594 236.3906 ZM252.4219 197.2969 L242.2969 171.9844 L211.2188 171.9844 Q211.5 174.2344 211.2188 178.875 L213.1875 178.875 Q218.9531 176.3438 224.5781 176.3438 L240.75 176.3438 L248.625 199.5469 Q250.7344 198.1406 252.4219 197.2969 ZM227.3906 260.7188 L227.3906 256.9219 Q217.6875 252.2812 215.0156 241.5938 Q213.1875 231.6094 211.3594 221.625 L208.6875 222.75 Q207.5625 225.2812 207.5625 234.2812 Q207.5625 245.25 209.1094 249.1875 Q214.1719 261.7031 223.5938 261.7031 Q225.5625 261.7031 227.3906 260.7188 ZM59.7656 211.2188 Q57.5156 210.6562 46.5469 209.8125 Q46.125 211.7812 45.2812 215.8594 L59.7656 211.2188 ZM52.1719 241.0312 Q52.1719 230.9062 42.3281 230.9062 Q36.5625 230.9062 29.3906 235.5469 Q21.6562 240.6094 21.6562 245.9531 Q21.6562 252.8438 23.3438 255.7969 Q27.4219 262.9688 35.2969 262.9688 Q37.6875 262.9688 41.3438 260.2969 Q43.5938 258.6094 47.8828 251.1562 Q52.1719 243.7031 52.1719 241.0312 Z" stroke="none" />
    </g>
  </g>
</svg>
